<svg width="30" height="22" viewBox="0 0 30 22" fill="none" xmlns="http://www.w3.org/2000/svg">
<path d="M22.6667 19.3333C23.7733 19.3333 24.6667 18.44 24.6667 17.3333C24.6667 16.2267 23.7733 15.3333 22.6667 15.3333C21.56 15.3333 20.6667 16.2267 20.6667 17.3333C20.6667 18.44 21.56 19.3333 22.6667 19.3333ZM24.6667 7.33333H21.3333V10.6667H27.28L24.6667 7.33333ZM6.66667 19.3333C7.77333 19.3333 8.66667 18.44 8.66667 17.3333C8.66667 16.2267 7.77333 15.3333 6.66667 15.3333C5.56 15.3333 4.66667 16.2267 4.66667 17.3333C4.66667 18.44 5.56 19.3333 6.66667 19.3333ZM25.3333 5.33333L29.3333 10.6667V17.3333H26.6667C26.6667 19.5467 24.88 21.3333 22.6667 21.3333C20.4533 21.3333 18.6667 19.5467 18.6667 17.3333H10.6667C10.6667 19.5467 8.88 21.3333 6.66667 21.3333C4.45333 21.3333 2.66667 19.5467 2.66667 17.3333H0V2.66667C0 1.18667 1.18667 0 2.66667 0H21.3333V5.33333H25.3333ZM2.66667 2.66667V14.6667H3.68C4.41333 13.8533 5.48 13.3333 6.66667 13.3333C7.85333 13.3333 8.92 13.8533 9.65333 14.6667H18.6667V2.66667H2.66667ZM12 4L16.6667 8.66667L12 13.3333V10H5.33333V7.33333H12V4Z" fill="#404040"/>
</svg>
