<svg width="23" height="32" viewBox="0 0 23 32" fill="none" xmlns="http://www.w3.org/2000/svg">
<path d="M21.5647 30.75L21.9727 26.254C22.0606 25.2856 21.7928 24.3183 21.2193 23.533C20.6458 22.7477 19.8059 22.1982 18.8567 21.9873L13.75 20.8527V14.25C13.75 13.587 13.4866 12.9511 13.0178 12.4822C12.5489 12.0134 11.913 11.75 11.25 11.75C10.587 11.75 9.95107 12.0134 9.48223 12.4822C9.01339 12.9511 8.75 13.587 8.75 14.25V26.75L6.29533 24.9087C5.8391 24.5637 5.2676 24.4074 4.6993 24.4724C4.13101 24.5374 3.60951 24.8186 3.24294 25.2577C2.87637 25.6968 2.69284 26.2601 2.73039 26.8309C2.76795 27.4016 3.02372 27.9361 3.44466 28.3233L6.06066 30.75" stroke="#404040" stroke-width="1.5" stroke-linecap="round" stroke-linejoin="round"/>
<path d="M4.75 18.75H2.75C2.21957 18.75 1.71086 18.5393 1.33579 18.1642C0.960714 17.7891 0.75 17.2804 0.75 16.75V2.75C0.75 2.21957 0.960714 1.71086 1.33579 1.33579C1.71086 0.960714 2.21957 0.75 2.75 0.75H18.75C19.2804 0.75 19.7891 0.960714 20.1642 1.33579C20.5393 1.71086 20.75 2.21957 20.75 2.75V16.75C20.75 17.2804 20.5393 17.7891 20.1642 18.1642C19.7891 18.5393 19.2804 18.75 18.75 18.75H17.75" stroke="#404040" stroke-width="1.5" stroke-linecap="round" stroke-linejoin="round"/>
<path d="M7.75 0.75H13.75V7.75H7.75V0.75Z" stroke="#404040" stroke-width="1.5" stroke-linecap="round" stroke-linejoin="round"/>
</svg>
