<svg width="32" height="32" viewBox="0 0 32 32" fill="none" xmlns="http://www.w3.org/2000/svg">
<path d="M2.6665 32V29.3333H29.3332V32H2.6665ZM7.99984 22.436H9.4305L21.1638 10.7106L20.4545 9.97462L19.7252 9.27196L7.99984 21.0053V22.436ZM6.6665 23.7693V20.436L21.6265 5.48395C21.7678 5.34173 21.9225 5.23862 22.0905 5.17462C22.2585 5.11062 22.4301 5.07818 22.6052 5.07729C22.7803 5.0764 22.9496 5.10884 23.1132 5.17462C23.2767 5.2404 23.4323 5.34618 23.5798 5.49195L24.9518 6.87195C25.0985 7.01418 25.2029 7.16751 25.2652 7.33195C25.3274 7.49729 25.3585 7.66795 25.3585 7.84395C25.3585 8.00929 25.3261 8.17773 25.2612 8.34929C25.1963 8.51996 25.0927 8.67595 24.9505 8.81729L9.99984 23.7693H6.6665ZM21.1638 10.7106L20.4545 9.97462L19.7252 9.27196L21.1638 10.7106Z" fill="#404040"/>
</svg>
